<svg width="72" height="94" viewBox="0 0 72 94" fill="none" xmlns="http://www.w3.org/2000/svg">
<path d="M12.5 89.5L9.5 40L63.5 43.5L32.5 10L8 43.5L63.5 86.5M63.5 86.5H8L61.5 43.5L63.5 86.5Z" stroke="white" stroke-width="11" stroke-miterlimit="1.73976"/>
<path d="M9.5 39.5L10.5 51.5L30 70.5L58.5 48L59.5 43L9.5 39.5Z" fill="white"/>
<path d="M12.1176 83.1905L9.79648 44.8919L8 43.5L9.5811 41.3381L9.5 40L10.5117 40.0656L32.5 10L63.5 43.5L10.5117 40.0656L9.5811 41.3381L9.79648 44.8919L35.2408 64.6055L61.5 43.5L63.5 86.5H12.3182H8L12.1176 83.1905Z" fill="white"/>
<path d="M12.5 89.5L9.5 40L63.5 43.5L32.5 10L8 43.5L63.5 86.5M63.5 86.5H8L61.5 43.5L63.5 86.5Z" stroke="black" stroke-width="4" stroke-miterlimit="1.73976"/>
</svg>
